<svg width="472" height="78" viewBox="0 0 472 78" fill="none" xmlns="http://www.w3.org/2000/svg">
<g clip-path="url(#clip0_1_2)">
<path d="M15.128 61.976C12.688 61.976 10.7157 61.5083 9.211 60.573C7.747 59.6377 6.66933 58.1737 5.978 56.181C5.32733 54.1883 5.002 51.6263 5.002 48.495V41.48C5.002 40.748 5.02233 39.9143 5.063 38.979C5.10367 38.003 5.14433 37.0677 5.185 36.173C4.53433 36.2137 3.76167 36.2543 2.867 36.295C2.013 36.295 1.36233 36.3153 0.915 36.356V31.72H1.525C4.04633 31.72 6.039 31.5167 7.503 31.11C8.967 30.7033 9.90233 30.2967 10.309 29.89H13.664V48.556C13.664 51.1993 14.0097 53.1717 14.701 54.473C15.3923 55.7337 16.4903 56.364 17.995 56.364C19.0523 56.364 20.1097 56.0793 21.167 55.51C22.265 54.9 23.1597 54.2087 23.851 53.436V41.48C23.851 40.748 23.8713 39.9143 23.912 38.979C23.9527 38.003 24.0137 37.0677 24.095 36.173C23.4443 36.2137 22.6717 36.2543 21.777 36.295C20.923 36.295 20.2723 36.3153 19.825 36.356V31.72H21.289C23.2003 31.72 24.888 31.5167 26.352 31.11C27.816 30.6627 28.7513 30.256 29.158 29.89H32.513V51.179C32.513 51.7483 32.4927 52.5617 32.452 53.619C32.4113 54.6357 32.3503 55.6117 32.269 56.547C32.9197 56.4657 33.6313 56.425 34.404 56.425C35.2173 56.3843 35.8273 56.364 36.234 56.364V61H24.644C24.6033 60.4713 24.5423 59.9427 24.461 59.414C24.4203 58.8853 24.3593 58.3567 24.278 57.828C23.0173 58.8853 21.655 59.841 20.191 60.695C18.7677 61.549 17.08 61.976 15.128 61.976ZM52.0487 61.976C50.8287 61.976 49.6494 61.8337 48.5107 61.549C47.4127 61.2643 46.3961 60.7357 45.4607 59.963C44.5661 59.1497 43.8544 57.9703 43.3257 56.425C42.7971 54.8797 42.5327 52.826 42.5327 50.264L42.6547 35.563H38.5067V30.5C39.7674 30.4593 40.9874 30.0323 42.1667 29.219C43.3461 28.4057 44.3424 27.3483 45.1557 26.047C46.0097 24.7457 46.5791 23.3833 46.8637 21.96H51.3777L51.3167 30.5H59.0637V35.197L51.3167 35.38L51.2557 50.386C51.2557 51.3213 51.3371 52.2567 51.4997 53.192C51.7031 54.0867 52.0691 54.839 52.5977 55.449C53.1264 56.0183 53.8991 56.303 54.9157 56.303C55.4851 56.303 56.2577 56.0997 57.2337 55.693C58.2504 55.2863 59.3281 54.2697 60.4667 52.643L63.3947 55.388C62.2967 57.0147 61.1581 58.2753 59.9787 59.17C58.7994 60.0647 57.6607 60.7153 56.5627 61.122C55.5054 61.5287 54.5701 61.7727 53.7567 61.854C52.9434 61.9353 52.3741 61.976 52.0487 61.976ZM65.169 57.035C66.3076 57.035 67.121 56.8113 67.609 56.364C68.097 55.9167 68.402 55.2863 68.524 54.473C68.6866 53.619 68.768 52.6633 68.768 51.606V41.48C68.768 40.748 68.7883 39.9143 68.829 38.979C68.8696 38.003 68.9306 37.0677 69.012 36.173C68.3613 36.2137 67.5886 36.2543 66.694 36.295C65.84 36.295 65.1893 36.3153 64.742 36.356V31.72C66.6126 31.72 68.1986 31.6183 69.5 31.415C70.8013 31.2117 71.818 30.9677 72.55 30.683C73.3226 30.3983 73.8513 30.134 74.136 29.89H77.43V51.179C77.43 51.7483 77.4096 52.5617 77.369 53.619C77.3283 54.6357 77.2673 55.6117 77.186 56.547C77.8366 56.4657 78.5483 56.425 79.321 56.425C80.1343 56.3843 80.7443 56.364 81.151 56.364V61H65.169V57.035ZM72.794 25.071C71.4113 25.071 70.2726 24.583 69.378 23.607C68.4833 22.631 68.036 21.4517 68.036 20.069C68.036 18.6863 68.5036 17.507 69.439 16.531C70.3743 15.555 71.4723 15.067 72.733 15.067C74.0343 15.067 75.112 15.555 75.966 16.531C76.8606 17.507 77.308 18.6863 77.308 20.069C77.308 21.4517 76.9013 22.631 76.088 23.607C75.2746 24.583 74.1766 25.071 72.794 25.071ZM84.149 57.035C85.2877 57.035 86.101 56.8113 86.589 56.364C87.1177 55.9167 87.443 55.2863 87.565 54.473C87.687 53.619 87.748 52.6633 87.748 51.606V26.535C87.748 25.803 87.7684 24.9693 87.809 24.034C87.8497 23.058 87.9107 22.1227 87.992 21.228C87.3414 21.2687 86.5687 21.3093 85.674 21.35C84.82 21.35 84.1694 21.3703 83.722 21.411V16.775C85.6334 16.775 87.2194 16.6733 88.48 16.47C89.7814 16.2667 90.798 16.0227 91.53 15.738C92.3027 15.4533 92.8314 15.189 93.116 14.945H96.41V51.179C96.41 51.7483 96.3897 52.5617 96.349 53.619C96.3084 54.6357 96.2474 55.6117 96.166 56.547C96.8574 56.4657 97.5894 56.425 98.362 56.425C99.1347 56.3843 99.7244 56.364 100.131 56.364V61H84.149V57.035ZM118.158 61.976C116.409 61.976 114.701 61.7523 113.034 61.305C111.367 60.8577 110.065 60.2883 109.13 59.597L109.252 61.427H104.616L104.372 50.935H108.337C108.459 52.155 108.947 53.2733 109.801 54.29C110.655 55.3067 111.773 56.12 113.156 56.73C114.539 57.2993 116.084 57.584 117.792 57.584C118.483 57.584 119.134 57.4823 119.744 57.279C120.395 57.0757 120.923 56.7503 121.33 56.303C121.777 55.815 122.001 55.2253 122.001 54.534C122.001 53.7613 121.716 53.131 121.147 52.643C120.618 52.155 119.825 51.6873 118.768 51.24C117.751 50.7927 116.47 50.2843 114.925 49.715C113.664 49.227 112.383 48.7187 111.082 48.19C109.821 47.6613 108.642 47.031 107.544 46.299C106.487 45.5263 105.633 44.591 104.982 43.493C104.331 42.3543 104.006 40.9717 104.006 39.345C104.006 38.1657 104.23 37.0067 104.677 35.868C105.124 34.6887 105.816 33.6313 106.751 32.696C107.686 31.72 108.866 30.9473 110.289 30.378C111.753 29.8087 113.481 29.524 115.474 29.524C116.572 29.524 117.812 29.707 119.195 30.073C120.618 30.3983 121.818 30.9067 122.794 31.598V29.829H127.43V40.626H123.465C123.221 39.2027 122.713 37.9827 121.94 36.966C121.208 35.9493 120.252 35.1767 119.073 34.648C117.894 34.0787 116.572 33.794 115.108 33.794C114.091 33.794 113.156 34.038 112.302 34.526C111.489 35.014 111.082 35.8477 111.082 37.027C111.082 37.9623 111.407 38.7147 112.058 39.284C112.709 39.8127 113.603 40.26 114.742 40.626C115.881 40.992 117.141 41.419 118.524 41.907C120.598 42.5983 122.428 43.4117 124.014 44.347C125.641 45.2823 126.922 46.421 127.857 47.763C128.792 49.0643 129.26 50.6707 129.26 52.582C129.26 54.6967 128.731 56.4453 127.674 57.828C126.617 59.2107 125.234 60.2477 123.526 60.939C121.859 61.6303 120.069 61.976 118.158 61.976Z" fill="#6C00E9"/>
<path d="M138.37 61.976C137.069 61.976 135.991 61.5083 135.137 60.573C134.324 59.6377 133.917 58.5193 133.917 57.218C133.917 55.9167 134.365 54.7983 135.259 53.863C136.154 52.9277 137.191 52.46 138.37 52.46C139.631 52.46 140.668 52.9277 141.481 53.863C142.335 54.7983 142.762 55.9167 142.762 57.218C142.762 58.5193 142.356 59.6377 141.542 60.573C140.77 61.5083 139.712 61.976 138.37 61.976ZM162.002 61.976C160.253 61.976 158.545 61.7523 156.878 61.305C155.21 60.8577 153.909 60.2883 152.974 59.597L153.096 61.427H148.46L148.216 50.935H152.181C152.303 52.155 152.791 53.2733 153.645 54.29C154.499 55.3067 155.617 56.12 157 56.73C158.382 57.2993 159.928 57.584 161.636 57.584C162.327 57.584 162.978 57.4823 163.588 57.279C164.238 57.0757 164.767 56.7503 165.174 56.303C165.621 55.815 165.845 55.2253 165.845 54.534C165.845 53.7613 165.56 53.131 164.991 52.643C164.462 52.155 163.669 51.6873 162.612 51.24C161.595 50.7927 160.314 50.2843 158.769 49.715C157.508 49.227 156.227 48.7187 154.926 48.19C153.665 47.6613 152.486 47.031 151.388 46.299C150.33 45.5263 149.476 44.591 148.826 43.493C148.175 42.3543 147.85 40.9717 147.85 39.345C147.85 38.1657 148.073 37.0067 148.521 35.868C148.968 34.6887 149.659 33.6313 150.595 32.696C151.53 31.72 152.709 30.9473 154.133 30.378C155.597 29.8087 157.325 29.524 159.318 29.524C160.416 29.524 161.656 29.707 163.039 30.073C164.462 30.3983 165.662 30.9067 166.638 31.598V29.829H171.274V40.626H167.309C167.065 39.2027 166.556 37.9827 165.784 36.966C165.052 35.9493 164.096 35.1767 162.917 34.648C161.737 34.0787 160.416 33.794 158.952 33.794C157.935 33.794 157 34.038 156.146 34.526C155.332 35.014 154.926 35.8477 154.926 37.027C154.926 37.9623 155.251 38.7147 155.902 39.284C156.552 39.8127 157.447 40.26 158.586 40.626C159.724 40.992 160.985 41.419 162.368 41.907C164.442 42.5983 166.272 43.4117 167.858 44.347C169.484 45.2823 170.765 46.421 171.701 47.763C172.636 49.0643 173.104 50.6707 173.104 52.582C173.104 54.6967 172.575 56.4453 171.518 57.828C170.46 59.2107 169.078 60.2477 167.37 60.939C165.702 61.6303 163.913 61.976 162.002 61.976ZM189.656 61.976C188.436 61.976 187.257 61.8337 186.118 61.549C185.02 61.2643 184.003 60.7357 183.068 59.963C182.173 59.1497 181.462 57.9703 180.933 56.425C180.404 54.8797 180.14 52.826 180.14 50.264L180.262 35.563H176.114V30.5C177.375 30.4593 178.595 30.0323 179.774 29.219C180.953 28.4057 181.95 27.3483 182.763 26.047C183.617 24.7457 184.186 23.3833 184.471 21.96H188.985L188.924 30.5H196.671V35.197L188.924 35.38L188.863 50.386C188.863 51.3213 188.944 52.2567 189.107 53.192C189.31 54.0867 189.676 54.839 190.205 55.449C190.734 56.0183 191.506 56.303 192.523 56.303C193.092 56.303 193.865 56.0997 194.841 55.693C195.858 55.2863 196.935 54.2697 198.074 52.643L201.002 55.388C199.904 57.0147 198.765 58.2753 197.586 59.17C196.407 60.0647 195.268 60.7153 194.17 61.122C193.113 61.5287 192.177 61.7727 191.364 61.854C190.551 61.9353 189.981 61.976 189.656 61.976ZM215.403 61.976C212.963 61.976 210.991 61.5083 209.486 60.573C208.022 59.6377 206.945 58.1737 206.253 56.181C205.603 54.1883 205.277 51.6263 205.277 48.495V41.48C205.277 40.748 205.298 39.9143 205.338 38.979C205.379 38.003 205.42 37.0677 205.46 36.173C204.81 36.2137 204.037 36.2543 203.142 36.295C202.288 36.295 201.638 36.3153 201.19 36.356V31.72H201.8C204.322 31.72 206.314 31.5167 207.778 31.11C209.242 30.7033 210.178 30.2967 210.584 29.89H213.939V48.556C213.939 51.1993 214.285 53.1717 214.976 54.473C215.668 55.7337 216.766 56.364 218.27 56.364C219.328 56.364 220.385 56.0793 221.442 55.51C222.54 54.9 223.435 54.2087 224.126 53.436V41.48C224.126 40.748 224.147 39.9143 224.187 38.979C224.228 38.003 224.289 37.0677 224.37 36.173C223.72 36.2137 222.947 36.2543 222.052 36.295C221.198 36.295 220.548 36.3153 220.1 36.356V31.72H221.564C223.476 31.72 225.163 31.5167 226.627 31.11C228.091 30.6627 229.027 30.256 229.433 29.89H232.788V51.179C232.788 51.7483 232.768 52.5617 232.727 53.619C232.687 54.6357 232.626 55.6117 232.544 56.547C233.195 56.4657 233.907 56.425 234.679 56.425C235.493 56.3843 236.103 56.364 236.509 56.364V61H224.919C224.879 60.4713 224.818 59.9427 224.736 59.414C224.696 58.8853 224.635 58.3567 224.553 57.828C223.293 58.8853 221.93 59.841 220.466 60.695C219.043 61.549 217.355 61.976 215.403 61.976ZM254.88 61.976C252.156 61.976 249.655 61.366 247.377 60.146C245.1 58.926 243.27 57.157 241.887 54.839C240.545 52.521 239.874 49.715 239.874 46.421C239.874 44.103 240.261 41.9273 241.033 39.894C241.806 37.8607 242.884 36.0713 244.266 34.526C245.69 32.9807 247.357 31.7607 249.268 30.866C251.22 29.9713 253.376 29.524 255.734 29.524C258.337 29.524 260.492 29.9307 262.2 30.744C263.949 31.5167 265.25 32.5537 266.104 33.855C266.999 35.1157 267.446 36.4577 267.446 37.881C267.446 39.0603 267.08 40.1177 266.348 41.053C265.657 41.9477 264.661 42.4153 263.359 42.456C261.814 42.4967 260.736 42.0697 260.126 41.175C259.516 40.2397 259.211 39.345 259.211 38.491C259.211 38.125 259.272 37.698 259.394 37.21C259.516 36.6813 259.699 36.2137 259.943 35.807C259.659 35.197 259.232 34.7497 258.662 34.465C258.093 34.1803 257.503 33.9973 256.893 33.916C256.324 33.794 255.856 33.7533 255.49 33.794C253.538 33.916 251.932 34.892 250.671 36.722C249.411 38.552 248.78 41.1953 248.78 44.652C248.78 46.6853 249.024 48.5967 249.512 50.386C250.041 52.1347 250.895 53.5783 252.074 54.717C253.254 55.8557 254.84 56.4657 256.832 56.547C258.54 56.5877 260.208 56.181 261.834 55.327C263.461 54.473 264.844 53.314 265.982 51.85L268.788 54.595C267.324 56.6283 265.799 58.1737 264.213 59.231C262.627 60.2883 261.041 61 259.455 61.366C257.91 61.7727 256.385 61.976 254.88 61.976ZM290.235 57.035C291.373 57.035 292.187 56.8113 292.675 56.364C293.203 55.9167 293.529 55.2863 293.651 54.473C293.813 53.619 293.895 52.6633 293.895 51.606L293.834 42.944C293.834 40.3007 293.427 38.3487 292.614 37.088C291.841 35.7867 290.601 35.136 288.893 35.136C287.876 35.136 286.859 35.3597 285.843 35.807C284.867 36.2543 284.033 36.783 283.342 37.393V51.179C283.342 51.7483 283.321 52.5617 283.281 53.619C283.24 54.6357 283.179 55.6117 283.098 56.547C283.789 56.4657 284.521 56.425 285.294 56.425C286.066 56.3843 286.656 56.364 287.063 56.364V61H271.081V57.035C272.219 57.035 273.033 56.8113 273.521 56.364C274.049 55.9167 274.375 55.2863 274.497 54.473C274.619 53.619 274.68 52.6633 274.68 51.606V26.535C274.68 25.803 274.7 24.9693 274.741 24.034C274.781 23.058 274.842 22.1227 274.924 21.228C274.273 21.2687 273.5 21.3093 272.606 21.35C271.752 21.35 271.101 21.3703 270.654 21.411V16.775C272.565 16.775 274.151 16.6733 275.412 16.47C276.713 16.2667 277.73 16.0227 278.462 15.738C279.234 15.4533 279.763 15.189 280.048 14.945H283.342V32.94C284.155 32.2893 285.09 31.72 286.148 31.232C287.205 30.7033 288.283 30.2967 289.381 30.012C290.479 29.6867 291.434 29.524 292.248 29.524C295.989 29.524 298.632 30.6017 300.178 32.757C301.723 34.8717 302.516 38.2877 302.557 43.005V51.179C302.557 51.7483 302.536 52.5617 302.496 53.619C302.455 54.6357 302.394 55.6117 302.313 56.547C302.963 56.4657 303.675 56.425 304.448 56.425C305.22 56.3843 305.83 56.364 306.278 56.364V61H290.235V57.035ZM308.967 57.035C310.106 57.035 310.919 56.8113 311.407 56.364C311.936 55.9167 312.261 55.2863 312.383 54.473C312.505 53.619 312.566 52.6633 312.566 51.606V26.535C312.566 25.803 312.587 24.9693 312.627 24.034C312.668 23.058 312.729 22.1227 312.81 21.228C312.16 21.2687 311.387 21.3093 310.492 21.35C309.638 21.35 308.988 21.3703 308.54 21.411V16.775C310.452 16.775 312.038 16.6733 313.298 16.47C314.6 16.2667 315.616 16.0227 316.348 15.738C317.121 15.4533 317.65 15.189 317.934 14.945H321.228V51.179C321.228 51.7483 321.208 52.5617 321.167 53.619C321.127 54.6357 321.066 55.6117 320.984 56.547C321.676 56.4657 322.408 56.425 323.18 56.425C323.953 56.3843 324.543 56.364 324.949 56.364V61H308.967V57.035ZM334.997 77.531C333.451 77.531 332.13 77.0633 331.032 76.128C329.974 75.2333 329.446 74.0337 329.446 72.529C329.446 71.431 329.791 70.455 330.483 69.601C331.215 68.7877 332.15 68.3607 333.289 68.32C334.183 68.2793 334.936 68.564 335.546 69.174C336.196 69.8247 336.522 70.699 336.522 71.797C336.522 71.919 336.522 72.041 336.522 72.163C336.522 72.285 336.501 72.4273 336.461 72.59C336.542 72.59 336.644 72.5697 336.766 72.529C337.132 72.407 337.518 72.0613 337.925 71.492C338.372 70.9633 338.799 70.2517 339.206 69.357C339.653 68.4217 340.08 67.3643 340.487 66.185C340.934 65.0463 341.32 63.8467 341.646 62.586L332.008 43.249C330.869 40.9717 330.117 39.2637 329.751 38.125C329.425 36.9457 329.202 35.9087 329.08 35.014L326.274 35.136V30.5H341.463V34.404C339.958 34.5667 339.124 35.136 338.962 36.112C338.84 37.088 339.023 38.1047 339.511 39.162L345.489 52.826C345.895 51.7687 346.424 50.142 347.075 47.946C347.725 45.7093 348.498 43.2897 349.393 40.687C349.555 40.1583 349.759 39.5483 350.003 38.857C350.287 38.125 350.592 37.4133 350.918 36.722C351.243 35.99 351.589 35.4003 351.955 34.953L348.478 35.136V30.5H359.336V34.404C358.075 34.6887 357.018 35.4613 356.164 36.722C355.35 37.9827 354.618 39.528 353.968 41.358L346.343 63.135C345.204 66.429 344.126 69.1333 343.11 71.248C342.093 73.4033 340.954 74.9893 339.694 76.006C338.433 77.0227 336.867 77.531 334.997 77.531ZM365.849 28.731C365.849 23.8103 366.927 20.2927 369.082 18.178C371.238 16.0227 374.145 14.945 377.805 14.945C379.717 14.945 381.242 15.2297 382.38 15.799C383.519 16.3277 384.332 16.9987 384.82 17.812C385.308 18.6253 385.552 19.459 385.552 20.313C385.552 21.3703 385.227 22.3057 384.576 23.119C383.926 23.9323 382.99 24.3593 381.77 24.4C380.591 24.4407 379.676 24.1357 379.025 23.485C378.375 22.7937 378.049 21.9397 378.049 20.923C378.049 20.7197 378.049 20.5163 378.049 20.313C378.09 20.1097 378.131 19.9063 378.171 19.703C377.968 19.4997 377.724 19.3777 377.439 19.337C377.195 19.2557 376.972 19.215 376.768 19.215C376.118 19.215 375.609 19.4183 375.243 19.825C374.877 20.191 374.633 20.6587 374.511 21.228C374.389 21.7973 374.328 22.387 374.328 22.997V30.5H381.16V35.197L374.389 35.38L374.45 51.057C374.45 51.6263 374.43 52.46 374.389 53.558C374.349 54.6153 374.288 55.6117 374.206 56.547C374.898 56.4657 375.67 56.425 376.524 56.425C377.419 56.3843 378.07 56.364 378.476 56.364V61H362.189V57.035C363.328 57.035 364.141 56.8113 364.629 56.364C365.158 55.9167 365.483 55.2863 365.605 54.473C365.768 53.619 365.849 52.6633 365.849 51.606V35.502L361.396 35.563V30.5H365.849V28.731ZM389.221 61.976C387.92 61.976 386.842 61.5083 385.988 60.573C385.175 59.6377 384.768 58.5193 384.768 57.218C384.768 55.9167 385.215 54.7983 386.11 53.863C387.005 52.9277 388.042 52.46 389.221 52.46C390.482 52.46 391.519 52.9277 392.332 53.863C393.186 54.7983 393.613 55.9167 393.613 57.218C393.613 58.5193 393.206 59.6377 392.393 60.573C391.62 61.5083 390.563 61.976 389.221 61.976ZM398.822 61V57.035C399.961 57.035 400.774 56.8113 401.262 56.364C401.75 55.9167 402.055 55.2863 402.177 54.473C402.34 53.619 402.421 52.6633 402.421 51.606V41.358C402.421 40.626 402.442 39.8127 402.482 38.918C402.523 37.9827 402.584 37.0677 402.665 36.173C402.015 36.2137 401.242 36.2543 400.347 36.295C399.493 36.295 398.843 36.3153 398.395 36.356V31.72C400.266 31.72 401.852 31.6183 403.153 31.415C404.455 31.2117 405.471 30.9677 406.203 30.683C406.976 30.3983 407.505 30.134 407.789 29.89H410.778C410.86 30.2967 410.9 30.805 410.9 31.415C410.941 32.025 410.982 32.5333 411.022 32.94C412.405 31.8827 413.889 31.049 415.475 30.439C417.102 29.829 418.627 29.524 420.05 29.524C421.921 29.524 423.466 29.8697 424.686 30.561C425.906 31.2117 426.882 32.208 427.614 33.55C429.078 32.33 430.685 31.354 432.433 30.622C434.223 29.89 435.931 29.524 437.557 29.524C440.851 29.524 443.332 30.4797 444.999 32.391C446.707 34.2617 447.561 37.5353 447.561 42.212V51.179C447.561 51.7483 447.541 52.5617 447.5 53.619C447.46 54.6357 447.399 55.6117 447.317 56.547C447.968 56.4657 448.68 56.425 449.452 56.425C450.266 56.3843 450.876 56.364 451.282 56.364V61H435.849V57.035C436.785 57.035 437.456 56.8113 437.862 56.364C438.31 55.9167 438.594 55.2863 438.716 54.473C438.838 53.619 438.899 52.6633 438.899 51.606V42.273C438.859 39.6297 438.411 37.7997 437.557 36.783C436.744 35.7663 435.646 35.2377 434.263 35.197C433.206 35.1563 432.21 35.3393 431.274 35.746C430.38 36.1527 429.566 36.6407 428.834 37.21C429.038 38.0233 429.18 38.918 429.261 39.894C429.343 40.87 429.383 41.907 429.383 43.005C429.383 44.3877 429.383 45.75 429.383 47.092C429.383 48.434 429.383 49.7963 429.383 51.179C429.383 51.7483 429.363 52.5617 429.322 53.619C429.282 54.6357 429.221 55.6117 429.139 56.547C429.79 56.4657 430.502 56.425 431.274 56.425C432.047 56.3843 432.657 56.364 433.104 56.364V61H417.366V57.035C418.424 57.035 419.176 56.8113 419.623 56.364C420.111 55.9167 420.416 55.2863 420.538 54.473C420.66 53.619 420.721 52.6633 420.721 51.606L420.66 42.09C420.66 39.4467 420.274 37.637 419.501 36.661C418.729 35.685 417.651 35.1767 416.268 35.136C415.252 35.136 414.296 35.3597 413.401 35.807C412.547 36.2543 411.775 36.783 411.083 37.393C411.083 37.9217 411.083 38.43 411.083 38.918C411.083 39.406 411.083 39.9143 411.083 40.443V51.179C411.083 51.7483 411.063 52.5617 411.022 53.619C410.982 54.6357 410.921 55.6117 410.839 56.547C411.49 56.4657 412.161 56.425 412.852 56.425C413.544 56.3843 414.093 56.364 414.499 56.364V61H398.822ZM453.962 57.035C455.1 57.035 455.914 56.8113 456.402 56.364C456.93 55.9167 457.256 55.2863 457.378 54.473C457.5 53.619 457.561 52.6633 457.561 51.606V26.535C457.561 25.803 457.581 24.9693 457.622 24.034C457.662 23.058 457.723 22.1227 457.805 21.228C457.154 21.2687 456.381 21.3093 455.487 21.35C454.633 21.35 453.982 21.3703 453.535 21.411V16.775C455.446 16.775 457.032 16.6733 458.293 16.47C459.594 16.2667 460.611 16.0227 461.343 15.738C462.115 15.4533 462.644 15.189 462.929 14.945H466.223V51.179C466.223 51.7483 466.202 52.5617 466.162 53.619C466.121 54.6357 466.06 55.6117 465.979 56.547C466.67 56.4657 467.402 56.425 468.175 56.425C468.947 56.3843 469.537 56.364 469.944 56.364V61H453.962V57.035Z" fill="#A6ADBA"/>
</g>
<defs>
<clipPath id="clip0_1_2">
<rect width="472" height="78" fill="white"/>
</clipPath>
</defs>
</svg>
